<svg width="30" height="30" viewBox="0 0 30 30" fill="none" xmlns="http://www.w3.org/2000/svg">
<path d="M2.72727 15C2.72727 8.22196 8.22196 2.72727 15 2.72727C21.778 2.72727 27.2727 8.22196 27.2727 15C27.2727 21.778 21.778 27.2727 15 27.2727C8.22196 27.2727 2.72727 21.778 2.72727 15ZM15 0C6.71573 0 0 6.71573 0 15C0 23.2843 6.71573 30 15 30C23.2843 30 30 23.2843 30 15C30 6.71573 23.2843 0 15 0ZM14.6006 9.94485L18.6915 14.0358C19.224 14.5683 19.224 15.4317 18.6915 15.9642L14.6006 20.0551C14.0681 20.5877 13.2047 20.5877 12.6721 20.0551C12.1396 19.5226 12.1396 18.6592 12.6721 18.1267L15.7988 15L12.6721 11.8733C12.1396 11.3408 12.1396 10.4774 12.6721 9.94485C13.2047 9.41232 14.0681 9.41232 14.6006 9.94485Z" fill="#fff"/>
</svg>
