<svg width="30" height="30" viewBox="0 0 30 30" fill="none" xmlns="http://www.w3.org/2000/svg">
<path d="M2.72727 15C2.72727 8.22196 8.22196 2.72727 15 2.72727C21.778 2.72727 27.2727 8.22196 27.2727 15C27.2727 21.778 21.778 27.2727 15 27.2727C8.22196 27.2727 2.72727 21.778 2.72727 15ZM15 0C6.71573 0 0 6.71573 0 15C0 23.2843 6.71573 30 15 30C23.2843 30 30 23.2843 30 15C30 6.71573 23.2843 0 15 0ZM15.3994 9.94485L11.3085 14.0358C10.776 14.5683 10.776 15.4317 11.3085 15.9642L15.3994 20.0551C15.9319 20.5877 16.7953 20.5877 17.3279 20.0551C17.8604 19.5226 17.8604 18.6592 17.3279 18.1267L14.2012 15L17.3279 11.8733C17.8604 11.3408 17.8604 10.4774 17.3279 9.94485C16.7953 9.41232 15.9319 9.41232 15.3994 9.94485Z" fill="white"/>
</svg>
