<svg width="17" height="16" viewBox="0 0 17 16" fill="none" xmlns="http://www.w3.org/2000/svg">
<path d="M8.55779 14C8.12779 13.6187 7.64179 13.222 7.12779 12.8H7.12113C5.31113 11.32 3.2598 9.64535 2.3538 7.63868C2.05614 6.99983 1.8984 6.30477 1.89112 5.60002C1.88913 4.63301 2.27698 3.70601 2.967 3.02853C3.65703 2.35105 4.59098 1.98028 5.5578 2.00002C6.34488 2.00126 7.11502 2.22874 7.77646 2.65535C8.06711 2.844 8.33008 3.07219 8.55779 3.33335C8.78679 3.07321 9.04982 2.84516 9.3398 2.65535C10.001 2.22865 10.7709 2.00116 11.5578 2.00002C12.5246 1.98028 13.4586 2.35105 14.1486 3.02853C14.8386 3.70601 15.2265 4.63301 15.2245 5.60002C15.2177 6.30589 15.0599 7.00215 14.7618 7.64202C13.8558 9.64868 11.8051 11.3227 9.99513 12.8L9.98846 12.8053C9.47379 13.2247 8.98846 13.6213 8.55846 14.0053L8.55779 14ZM5.5578 3.33335C4.9368 3.32558 4.33784 3.56325 3.89113 3.99468C3.46072 4.41746 3.22016 4.99671 3.22441 5.60002C3.23201 6.11368 3.34835 6.61992 3.5658 7.08535C3.99347 7.95115 4.57053 8.73472 5.27046 9.40002C5.93113 10.0667 6.69113 10.712 7.34846 11.2547C7.53046 11.4047 7.7158 11.556 7.90113 11.7073L8.01779 11.8027C8.19579 11.948 8.3798 12.0987 8.55779 12.2467L8.56646 12.2387L8.57046 12.2353H8.57446L8.58046 12.2307H8.58379H8.58713L8.59913 12.2207L8.62646 12.1987L8.63113 12.1947L8.63846 12.1894H8.64246L8.64846 12.184L9.09113 11.8207L9.20713 11.7254C9.39446 11.5727 9.57979 11.4214 9.76179 11.2713C10.4191 10.7287 11.1798 10.084 11.8405 9.41402C12.5405 8.74906 13.1176 7.96569 13.5451 7.10002C13.7665 6.63055 13.8845 6.11902 13.8912 5.60002C13.8939 4.99858 13.6535 4.42155 13.2245 4.00002C12.7786 3.56663 12.1795 3.32701 11.5578 3.33335C10.7991 3.3269 10.0738 3.64493 9.56446 4.20735L8.55779 5.36735L7.55113 4.20735C7.04184 3.64493 6.31651 3.3269 5.5578 3.33335Z" fill="#CDD0D9"/>
</svg>
