<svg width="14" height="13" viewBox="0 0 14 13" fill="none" xmlns="http://www.w3.org/2000/svg">
<path d="M6.99993 12C6.56993 11.6187 6.08393 11.222 5.56993 10.8H5.56327C3.75327 9.32002 1.70193 7.64535 0.795934 5.63868C0.498279 4.99983 0.340536 4.30477 0.33326 3.60002C0.331272 2.63301 0.719114 1.70601 1.40914 1.02853C2.09916 0.35105 3.03312 -0.0197199 3.99993 1.70967e-05C4.78702 0.0012603 5.55716 0.228738 6.2186 0.65535C6.50925 0.843997 6.77221 1.07219 6.99993 1.33335C7.22892 1.07321 7.49196 0.845156 7.78193 0.65535C8.44309 0.228654 9.21304 0.0011628 9.99993 1.70967e-05C10.9667 -0.0197199 11.9007 0.35105 12.5907 1.02853C13.2808 1.70601 13.6686 2.63301 13.6666 3.60002C13.6598 4.30589 13.5021 5.00215 13.2039 5.64202C12.2979 7.64868 10.2473 9.32268 8.43727 10.8L8.4306 10.8053C7.91593 11.2247 7.4306 11.6213 7.0006 12.0053L6.99993 12ZM3.99993 1.33335C3.37894 1.32558 2.77998 1.56325 2.33327 1.99468C1.90286 2.41746 1.6623 2.99671 1.66654 3.60002C1.67415 4.11368 1.79049 4.61992 2.00793 5.08535C2.43561 5.95115 3.01267 6.73472 3.7126 7.40002C4.37327 8.06668 5.13327 8.71202 5.7906 9.25468C5.9726 9.40468 6.15793 9.55602 6.34327 9.70735L6.45993 9.80268C6.63793 9.94802 6.82193 10.0987 6.99993 10.2467L7.0086 10.2387L7.0126 10.2353H7.0166L7.0226 10.2307H7.02593H7.02927L7.04127 10.2207L7.0686 10.1987L7.07327 10.1947L7.0806 10.1894H7.0846L7.0906 10.184L7.53327 9.82068L7.64927 9.72535C7.8366 9.57268 8.02193 9.42135 8.20393 9.27135C8.86127 8.72868 9.62193 8.08402 10.2826 7.41402C10.9826 6.74906 11.5597 5.96569 11.9873 5.10002C12.2086 4.63055 12.3266 4.11902 12.3333 3.60002C12.336 2.99858 12.0956 2.42155 11.6666 2.00002C11.2207 1.56663 10.6217 1.32701 9.99993 1.33335C9.24122 1.3269 8.51589 1.64493 8.0066 2.20735L6.99993 3.36735L5.99327 2.20735C5.48398 1.64493 4.75865 1.3269 3.99993 1.33335Z" fill="#CDD0D9"/>
</svg>
