<svg width="28" height="18" viewBox="0 0 28 18" fill="none" xmlns="http://www.w3.org/2000/svg">
<path d="M15.2281 17.75C5.83245 17.75 0.473298 11.1809 0.25 0.25H4.95643C5.11102 8.27302 8.58073 11.6714 11.329 12.3721V0.25H15.7606V7.16942C18.4745 6.87162 21.3259 3.71847 22.2878 0.25H26.7194C26.3569 2.04885 25.6344 3.75207 24.597 5.25313C23.5596 6.75419 22.2297 8.02079 20.6904 8.97372C22.4086 9.84444 23.9262 11.0769 25.1431 12.5897C26.36 14.1025 27.2485 15.8613 27.75 17.75H22.8718C22.4216 16.1095 21.5067 14.641 20.2417 13.5285C18.9767 12.4161 17.4179 11.7091 15.7606 11.4962V17.75H15.2281Z" fill="#42403D"/>
</svg>
