<svg width="26" height="26" viewBox="0 0 26 26" fill="none" xmlns="http://www.w3.org/2000/svg">
<path d="M13 2.75904C16.3133 2.75904 16.7651 2.75904 18.1205 2.75904C19.3253 2.75904 19.9277 3.06024 20.3795 3.21084C20.9819 3.51205 21.4337 3.66265 21.8855 4.11446C22.3374 4.56627 22.6386 5.01807 22.7892 5.62048C22.9398 6.07229 23.0904 6.6747 23.241 7.87952C23.241 9.23494 23.241 9.53615 23.241 13C23.241 16.4639 23.241 16.7651 23.241 18.1205C23.241 19.3253 22.9398 19.9277 22.7892 20.3795C22.488 20.9819 22.3374 21.4337 21.8855 21.8855C21.4337 22.3374 20.9819 22.6386 20.3795 22.7892C19.9277 22.9398 19.3253 23.0904 18.1205 23.241C16.7651 23.241 16.4639 23.241 13 23.241C9.53615 23.241 9.23494 23.241 7.87952 23.241C6.6747 23.241 6.07229 22.9398 5.62048 22.7892C5.01807 22.488 4.56627 22.3374 4.11446 21.8855C3.66265 21.4337 3.36145 20.9819 3.21084 20.3795C3.06024 19.9277 2.90964 19.3253 2.75904 18.1205C2.75904 16.7651 2.75904 16.4639 2.75904 13C2.75904 9.53615 2.75904 9.23494 2.75904 7.87952C2.75904 6.6747 3.06024 6.07229 3.21084 5.62048C3.51205 5.01807 3.66265 4.56627 4.11446 4.11446C4.56627 3.66265 5.01807 3.36145 5.62048 3.21084C6.07229 3.06024 6.6747 2.90964 7.87952 2.75904C9.23494 2.75904 9.68675 2.75904 13 2.75904ZM13 0.5C9.53615 0.5 9.23494 0.5 7.87952 0.5C6.5241 0.5 5.62048 0.801206 4.86747 1.10241C4.11446 1.40362 3.36145 1.85542 2.60843 2.60843C1.85542 3.36145 1.55422 3.96386 1.10241 4.86747C0.801206 5.62048 0.650602 6.5241 0.5 7.87952C0.5 9.23494 0.5 9.68675 0.5 13C0.5 16.4639 0.5 16.7651 0.5 18.1205C0.5 19.4759 0.801206 20.3795 1.10241 21.1325C1.40362 21.8855 1.85542 22.6386 2.60843 23.3916C3.36145 24.1446 3.96386 24.4458 4.86747 24.8976C5.62048 25.1988 6.5241 25.3494 7.87952 25.5C9.23494 25.5 9.68675 25.5 13 25.5C16.3133 25.5 16.7651 25.5 18.1205 25.5C19.4759 25.5 20.3795 25.1988 21.1325 24.8976C21.8855 24.5964 22.6386 24.1446 23.3916 23.3916C24.1446 22.6386 24.4458 22.0361 24.8976 21.1325C25.1988 20.3795 25.3494 19.4759 25.5 18.1205C25.5 16.7651 25.5 16.3133 25.5 13C25.5 9.68675 25.5 9.23494 25.5 7.87952C25.5 6.5241 25.1988 5.62048 24.8976 4.86747C24.5964 4.11446 24.1446 3.36145 23.3916 2.60843C22.6386 1.85542 22.0361 1.55422 21.1325 1.10241C20.3795 0.801206 19.4759 0.650602 18.1205 0.5C16.7651 0.5 16.4639 0.5 13 0.5Z" fill="#42403D"/>
<path d="M13 6.5241C9.38554 6.5241 6.5241 9.38554 6.5241 13C6.5241 16.6145 9.38554 19.4759 13 19.4759C16.6145 19.4759 19.4759 16.6145 19.4759 13C19.4759 9.38554 16.6145 6.5241 13 6.5241ZM13 17.2169C10.741 17.2169 8.78313 15.4096 8.78313 13C8.78313 10.741 10.5904 8.78313 13 8.78313C15.259 8.78313 17.2169 10.5904 17.2169 13C17.2169 15.259 15.259 17.2169 13 17.2169Z" fill="#42403D"/>
<path d="M19.6265 7.87952C20.4583 7.87952 21.1325 7.20525 21.1325 6.3735C21.1325 5.54174 20.4583 4.86747 19.6265 4.86747C18.7948 4.86747 18.1205 5.54174 18.1205 6.3735C18.1205 7.20525 18.7948 7.87952 19.6265 7.87952Z" fill="#42403D"/>
</svg>
