<svg width="27" height="27" viewBox="0 0 27 27" fill="none" xmlns="http://www.w3.org/2000/svg">
<path d="M22.9085 4.07812C20.439 1.61719 17.1463 0.25 13.6707 0.25C6.44512 0.25 0.591462 6.08333 0.591462 13.2839C0.591462 15.5625 1.23171 17.8411 2.32927 19.7552L0.5 26.5L7.45122 24.6771C9.37195 25.6797 11.4756 26.2266 13.6707 26.2266C20.8963 26.2266 26.75 20.3932 26.75 13.1927C26.6585 9.82031 25.378 6.53906 22.9085 4.07812ZM19.9817 17.9323C19.7073 18.6615 18.4268 19.3906 17.7866 19.4818C17.2378 19.5729 16.5061 19.5729 15.7744 19.3906C15.3171 19.2083 14.6768 19.026 13.9451 18.6615C10.6524 17.2943 8.54878 14.013 8.36586 13.7396C8.18293 13.5573 6.9939 12.0078 6.9939 10.3672C6.9939 8.72656 7.81707 7.99739 8.09146 7.63281C8.36585 7.26823 8.73171 7.26823 9.0061 7.26823C9.18902 7.26823 9.46341 7.26823 9.64634 7.26823C9.82926 7.26823 10.1037 7.17708 10.378 7.8151C10.6524 8.45312 11.2927 10.0938 11.3841 10.1849C11.4756 10.3672 11.4756 10.5495 11.3841 10.7318C11.2927 10.9141 11.2012 11.0964 11.0183 11.2786C10.8354 11.4609 10.6524 11.7344 10.561 11.8255C10.378 12.0078 10.1951 12.1901 10.378 12.4635C10.561 12.8281 11.2012 13.8307 12.2073 14.7422C13.4878 15.8359 14.4939 16.2005 14.8598 16.3828C15.2256 16.5651 15.4085 16.474 15.5915 16.2917C15.7744 16.1094 16.4146 15.3802 16.5976 15.0156C16.7805 14.651 17.0549 14.7422 17.3293 14.8333C17.6037 14.9245 19.25 15.7448 19.5244 15.9271C19.8902 16.1094 20.0732 16.2005 20.1646 16.2917C20.2561 16.5651 20.2561 17.2031 19.9817 17.9323Z" fill="#42403D"/>
</svg>
