<svg width="28" height="20" viewBox="0 0 28 20" fill="none" xmlns="http://www.w3.org/2000/svg">
<mask id="mask0_11_3500" style="mask-type:alpha" maskUnits="userSpaceOnUse" x="0" y="0" width="28" height="20">
<path d="M27.9675 11.5162C27.7668 16.2461 23.8108 19.6319 19.0826 19.8688C17.518 19.9473 15.7975 20 14 20C12.2025 20 10.482 19.9473 8.91742 19.8688C4.18919 19.6319 0.233201 16.2461 0.0324545 11.5162C0.0115901 11.0245 1.13148e-06 10.5182 1.19332e-06 10C1.25516e-06 9.48176 0.0115904 8.97545 0.0324549 8.48382C0.233202 3.75392 4.18919 0.368105 8.91742 0.131156C10.482 0.0527485 12.2025 8.95585e-07 14 1.0107e-06C15.7975 1.12582e-06 17.518 0.052749 19.0826 0.131156C23.8108 0.368107 27.7668 3.75392 27.9675 8.48382C27.9884 8.97545 28 9.48177 28 10C28 10.5182 27.9884 11.0246 27.9675 11.5162Z" fill="#00D0BF"/>
</mask>
<g mask="url(#mask0_11_3500)">
<rect x="28" y="23.3335" width="9.33333" height="27.2222" transform="rotate(-180 28 23.3335)" fill="#EE5757"/>
<rect x="18.6667" y="23.3335" width="9.33333" height="27.2222" transform="rotate(-180 18.6667 23.3335)" fill="white"/>
<rect x="9.33325" y="23.3335" width="9.33333" height="27.2222" transform="rotate(-180 9.33325 23.3335)" fill="#3F6FEB"/>
</g>
</svg>
