<svg width="28" height="20" viewBox="0 0 28 20" fill="none" xmlns="http://www.w3.org/2000/svg">
<mask id="mask0_11_3495" style="mask-type:alpha" maskUnits="userSpaceOnUse" x="0" y="0" width="28" height="20">
<path d="M0.0324531 8.48382C0.233199 3.75392 4.18919 0.368105 8.91742 0.131156C10.482 0.0527485 12.2025 0 14 0C15.7975 0 17.518 0.0527485 19.0826 0.131156C23.8108 0.368105 27.7668 3.75392 27.9675 8.48382C27.9884 8.97545 28 9.48177 28 10C28 10.5182 27.9884 11.0246 27.9675 11.5162C27.7668 16.2461 23.8108 19.6319 19.0826 19.8688C17.518 19.9473 15.7975 20 14 20C12.2025 20 10.482 19.9473 8.91742 19.8688C4.18919 19.6319 0.233199 16.2461 0.0324531 11.5162C0.0115876 11.0246 0 10.5182 0 10C0 9.48176 0.0115876 8.97545 0.0324531 8.48382Z" fill="#00D0BF"/>
</mask>
<g mask="url(#mask0_11_3495)">
<rect x="28" y="23.8887" width="9.33333" height="27.2222" transform="rotate(-180 28 23.8887)" fill="#EE5757"/>
<rect x="18.6667" y="23.8887" width="9.33333" height="27.2222" transform="rotate(-180 18.6667 23.8887)" fill="white"/>
<rect x="9.33325" y="23.8887" width="9.33333" height="27.2222" transform="rotate(-180 9.33325 23.8887)" fill="#59C785"/>
</g>
</svg>
