<svg width="7" height="11" viewBox="0 0 7 11" fill="none" xmlns="http://www.w3.org/2000/svg">
<path d="M4.06081 6.68613H0V5.5H4.06081C4.49411 5.5 4.84497 5.40934 5.11339 5.22802C5.38181 5.0467 5.57738 4.79487 5.70008 4.47253C5.82662 4.15018 5.88989 3.78251 5.88989 3.36951C5.88989 2.99176 5.82662 2.63668 5.70008 2.30426C5.57738 1.97184 5.38181 1.7049 5.11339 1.50343C4.84497 1.29693 4.49411 1.19368 4.06081 1.19368H2.08217V11H0.972063V0H4.06081C4.69351 0 5.22843 0.143544 5.66557 0.430632C6.10271 0.71772 6.4344 1.11561 6.66064 1.62431C6.88688 2.12798 7 2.70467 7 3.3544C7 4.05952 6.88688 4.6614 6.66064 5.16003C6.4344 5.65865 6.10271 6.03892 5.66557 6.30082C5.22843 6.55769 4.69351 6.68613 4.06081 6.68613Z" fill="#CDD0D9"/>
<rect y="7.77661" width="5.39907" height="1.28938" fill="#CDD0D9"/>
<path d="M0 4.71509H7" stroke="#CDD0D9" stroke-width="0.5"/>
</svg>
