<svg width="10" height="11" viewBox="0 0 10 11" fill="none" xmlns="http://www.w3.org/2000/svg">
<path d="M5.7789 6.68613H0.557861V5.5H5.7789C6.33601 5.5 6.78711 5.40934 7.13222 5.22802C7.47734 5.0467 7.72877 4.79487 7.88654 4.47253C8.04923 4.15018 8.13058 3.78251 8.13058 3.36951C8.13058 2.99176 8.04923 2.63668 7.88654 2.30426C7.72877 1.97184 7.47734 1.7049 7.13222 1.50343C6.78711 1.29693 6.33601 1.19368 5.7789 1.19368H3.23494V11H1.80766V0H5.7789C6.59237 0 7.28013 0.143544 7.84217 0.430632C8.4042 0.71772 8.83066 1.11561 9.12154 1.62431C9.41242 2.12798 9.55786 2.70467 9.55786 3.3544C9.55786 4.05952 9.41242 4.6614 9.12154 5.16003C8.83066 5.65865 8.4042 6.03892 7.84217 6.30082C7.28013 6.55769 6.59237 6.68613 5.7789 6.68613Z" fill="#42403D"/>
<rect x="0.557861" y="7.77661" width="6.94166" height="1.28938" fill="#42403D"/>
</svg>
