<svg width="6" height="10" viewBox="0 0 6 10" fill="none" xmlns="http://www.w3.org/2000/svg">
<path d="M3.48069 5.6311H0V4.63214H3.48069C3.8521 4.63214 4.15283 4.55578 4.38291 4.40307C4.61298 4.25037 4.78061 4.03827 4.88578 3.76679C4.99425 3.49531 5.04848 3.18565 5.04848 2.83782C5.04848 2.51968 4.99425 2.22063 4.88578 1.94066C4.78061 1.6607 4.61298 1.43588 4.38291 1.2662C4.15283 1.09228 3.8521 1.00533 3.48069 1.00533H1.78472V9.26427H0.833197V0H3.48069C4.02301 0 4.48151 0.120894 4.8562 0.362681C5.2309 0.604468 5.5152 0.939577 5.70912 1.36801C5.90304 1.7922 6 2.27789 6 2.82509C6 3.41896 5.90304 3.92586 5.70912 4.34581C5.5152 4.76575 5.2309 5.08602 4.8562 5.30659C4.48151 5.52293 4.02301 5.6311 3.48069 5.6311Z" fill="#CDD0D9"/>
<rect y="6.54956" width="4.62777" height="1.08592" fill="#CDD0D9"/>
<path d="M0 3.97046H6" stroke="#CDD0D9" stroke-width="0.5"/>
</svg>
