<svg width="11" height="13" viewBox="0 0 11 13" fill="none" xmlns="http://www.w3.org/2000/svg">
<path d="M6.38127 7.90179H0V6.5H6.38127C7.06218 6.5 7.61353 6.39286 8.03533 6.17857C8.45714 5.96429 8.76445 5.66667 8.95727 5.28571C9.15612 4.90476 9.25555 4.47024 9.25555 3.98214C9.25555 3.53571 9.15612 3.11607 8.95727 2.72321C8.76445 2.33036 8.45714 2.01488 8.03533 1.77679C7.61353 1.53274 7.06218 1.41071 6.38127 1.41071H3.27198V13H1.52753V0H6.38127C7.37552 0 8.21611 0.169643 8.90304 0.508929C9.58998 0.848214 10.1112 1.31845 10.4667 1.91964C10.8222 2.51488 11 3.19643 11 3.96429C11 4.79762 10.8222 5.50893 10.4667 6.09821C10.1112 6.6875 9.58998 7.1369 8.90304 7.44643C8.21611 7.75 7.37552 7.90179 6.38127 7.90179Z" fill="white"/>
<rect y="9.19043" width="8.48425" height="1.52381" fill="white"/>
</svg>
