<svg width="40" height="40" viewBox="0 0 40 40" fill="none" xmlns="http://www.w3.org/2000/svg">
<path d="M20 34.9999C18.925 34.0466 17.71 33.0549 16.425 31.9999H16.4083C11.8833 28.2999 6.75496 24.1133 4.48996 19.0966C3.74582 17.4995 3.35146 15.7618 3.33327 13.9999C3.3283 11.5824 4.29791 9.2649 6.02297 7.5712C7.74803 5.8775 10.0829 4.95058 12.5 4.99992C14.4677 5.00303 16.393 5.57172 18.0466 6.63825C18.7732 7.10987 19.4307 7.68034 20 8.33325C20.5724 7.68291 21.23 7.11277 21.955 6.63825C23.6079 5.57151 25.5327 5.00278 27.5 4.99992C29.917 4.95058 32.2519 5.8775 33.9769 7.5712C35.702 9.2649 36.6716 11.5824 36.6666 13.9999C36.6496 15.7646 36.2553 17.5052 35.51 19.1049C33.245 24.1216 28.1183 28.3066 23.5933 31.9999L23.5766 32.0133C22.29 33.0616 21.0766 34.0532 20.0016 35.0132L20 34.9999ZM12.5 8.33325C10.9475 8.31383 9.45008 8.90799 8.33329 9.98659C7.25727 11.0435 6.65588 12.4917 6.66648 13.9999C6.6855 15.2841 6.97634 16.5497 7.51996 17.7133C8.58914 19.8778 10.0318 21.8367 11.7816 23.4999C13.4333 25.1666 15.3333 26.7799 16.9766 28.1366C17.4316 28.5116 17.895 28.8899 18.3583 29.2683L18.65 29.5066C19.095 29.8699 19.555 30.2466 20 30.6166L20.0216 30.5966L20.0316 30.5883H20.0416L20.0566 30.5766H20.065H20.0733L20.1033 30.5516L20.1716 30.4966L20.1833 30.4866L20.2016 30.4733H20.2116L20.2266 30.4599L21.3333 29.5516L21.6233 29.3133C22.0916 28.9316 22.555 28.5533 23.01 28.1783C24.6533 26.8216 26.555 25.2099 28.2066 23.5349C29.9567 21.8725 31.3994 19.9141 32.4683 17.7499C33.0217 16.5763 33.3167 15.2974 33.3333 13.9999C33.3402 12.4963 32.7392 11.0537 31.6666 9.99992C30.552 8.91645 29.0543 8.31739 27.5 8.33325C25.6032 8.31713 23.7899 9.1122 22.5166 10.5183L20 13.4183L17.4833 10.5183C16.2101 9.1122 14.3968 8.31713 12.5 8.33325Z" fill="#DDBB64"/>
</svg>
