<svg width="28" height="20" viewBox="0 0 28 20" fill="none" xmlns="http://www.w3.org/2000/svg">
<mask id="mask0_11_3514" style="mask-type:alpha" maskUnits="userSpaceOnUse" x="0" y="0" width="28" height="20">
<path d="M0.0324531 8.48382C0.233199 3.75392 4.18919 0.368105 8.91742 0.131156C10.482 0.0527485 12.2025 0 14 0C15.7975 0 17.518 0.0527485 19.0826 0.131156C23.8108 0.368105 27.7668 3.75392 27.9675 8.48382C27.9884 8.97545 28 9.48177 28 10C28 10.5182 27.9884 11.0246 27.9675 11.5162C27.7668 16.2461 23.8108 19.6319 19.0826 19.8688C17.518 19.9473 15.7975 20 14 20C12.2025 20 10.482 19.9473 8.91742 19.8688C4.18919 19.6319 0.233199 16.2461 0.0324531 11.5162C0.0115876 11.0246 0 10.5182 0 10C0 9.48176 0.0115876 8.97545 0.0324531 8.48382Z" fill="#00D0BF"/>
</mask>
<g mask="url(#mask0_11_3514)">
<rect y="-3.3335" width="28" height="27.2222" fill="#EE5757"/>
<path d="M14.3878 7.20734C13.7423 6.14249 12.7458 5.31027 11.5531 4.83973C10.3603 4.36919 9.03782 4.28664 7.79076 4.60488C6.5437 4.92311 5.44174 5.62436 4.6558 6.59984C3.86986 7.57533 3.44385 8.77055 3.44385 10.0001C3.44385 11.2297 3.86986 12.4249 4.6558 13.4004C5.44174 14.3759 6.5437 15.0771 7.79076 15.3954C9.03782 15.7136 10.3603 15.631 11.5531 15.1605C12.7458 14.69 13.7423 13.8577 14.3878 12.7929C13.7803 13.5156 12.952 14.0407 12.0175 14.2957C11.0831 14.5507 10.0885 14.523 9.1713 14.2164C8.25408 13.9098 7.45951 13.3394 6.89738 12.5841C6.33525 11.8288 6.03333 10.9259 6.03333 10.0001C6.03333 9.07434 6.33525 8.17141 6.89738 7.41612C7.45951 6.66082 8.25408 6.09046 9.1713 5.78385C10.0885 5.47724 11.0831 5.44952 12.0175 5.70452C12.952 5.95952 13.7803 6.48465 14.3878 7.20734ZM20.4166 10.0001L15.1383 8.36169L18.4226 12.644V7.35628L15.1383 11.6386L20.4166 10.0001Z" fill="white"/>
</g>
</svg>
