<svg width="28" height="20" viewBox="0 0 28 20" fill="none" xmlns="http://www.w3.org/2000/svg">
<mask id="mask0_11_3413" style="mask-type:alpha" maskUnits="userSpaceOnUse" x="0" y="0" width="28" height="20">
<path d="M0.0324531 8.48382C0.233199 3.75392 4.18919 0.368105 8.91742 0.131156C10.482 0.0527485 12.2025 0 14 0C15.7975 0 17.518 0.0527485 19.0826 0.131156C23.8108 0.368105 27.7668 3.75392 27.9675 8.48382C27.9884 8.97545 28 9.48177 28 10C28 10.5182 27.9884 11.0246 27.9675 11.5162C27.7668 16.2461 23.8108 19.6319 19.0826 19.8688C17.518 19.9473 15.7975 20 14 20C12.2025 20 10.482 19.9473 8.91742 19.8688C4.18919 19.6319 0.233199 16.2461 0.0324531 11.5162C0.0115876 11.0246 0 10.5182 0 10C0 9.48176 0.0115876 8.97545 0.0324531 8.48382Z" fill="#00D0BF"/>
</mask>
<g mask="url(#mask0_11_3413)">
<rect x="-1.0769" y="15.3848" width="30.1539" height="1.53846" fill="#EE5757"/>
<rect x="-1.0769" y="13.8462" width="30.1539" height="1.53846" fill="white"/>
<rect x="-1.0769" y="18.4614" width="30.1539" height="1.53846" fill="#EE5757"/>
<rect x="-1.0769" y="12.3076" width="30.1539" height="1.53846" fill="#EE5757"/>
<rect x="-1.0769" y="16.9229" width="30.1539" height="1.53846" fill="white"/>
<rect x="-1.0769" y="10.769" width="30.1539" height="1.53846" fill="white"/>
<rect x="-1.0769" y="9.23096" width="30.1539" height="1.53846" fill="#EE5757"/>
<rect x="-1.0769" y="7.69238" width="30.1539" height="1.53846" fill="white"/>
<rect x="-1.0769" y="6.15381" width="30.1539" height="1.53846" fill="#EE5757"/>
<rect x="-1.0769" y="4.61523" width="30.1539" height="1.53846" fill="white"/>
<rect x="-1.0769" y="3.07666" width="30.1539" height="1.53846" fill="#EE5757"/>
<rect x="-1.0769" y="1.53857" width="30.1539" height="1.53846" fill="white"/>
<rect x="-1.0769" width="30.1539" height="1.53846" fill="#EE5757"/>
<rect width="15.75" height="10.7667" fill="#2E50A6"/>
<path d="M0.535708 0.833496L0.941483 2.02287L-0.12085 1.2878H1.19227L0.129933 2.02287L0.535708 0.833496Z" fill="white"/>
<path d="M0.535708 2.80566L0.941483 3.99504L-0.12085 3.25997H1.19227L0.129933 3.99504L0.535708 2.80566Z" fill="white"/>
<path d="M0.535708 4.77832L0.941483 5.9677L-0.12085 5.23262H1.19227L0.129933 5.9677L0.535708 4.77832Z" fill="white"/>
<path d="M0.535708 6.75049L0.941483 7.93987L-0.12085 7.20479H1.19227L0.129933 7.93987L0.535708 6.75049Z" fill="white"/>
<path d="M0.535708 8.72314L0.941483 9.91252L-0.12085 9.17745H1.19227L0.129933 9.91252L0.535708 8.72314Z" fill="white"/>
<path d="M14.5101 0.833496L14.9158 2.02287L13.8535 1.2878H15.1666L14.1043 2.02287L14.5101 0.833496Z" fill="white"/>
<path d="M14.5101 2.80566L14.9158 3.99504L13.8535 3.25997H15.1666L14.1043 3.99504L14.5101 2.80566Z" fill="white"/>
<path d="M13.1985 1.81982L13.6043 3.0092L12.542 2.27413H13.8551L12.7928 3.0092L13.1985 1.81982Z" fill="white"/>
<path d="M13.1985 3.8252L13.6043 5.01457L12.542 4.2795H13.8551L12.7928 5.01457L13.1985 3.8252Z" fill="white"/>
<path d="M13.1985 5.83008L13.6043 7.01946L12.542 6.28438H13.8551L12.7928 7.01946L13.1985 5.83008Z" fill="white"/>
<path d="M13.1985 7.83545L13.6043 9.02483L12.542 8.28975H13.8551L12.7928 9.02483L13.1985 7.83545Z" fill="white"/>
<path d="M14.5101 4.77832L14.9158 5.9677L13.8535 5.23262H15.1666L14.1043 5.9677L14.5101 4.77832Z" fill="white"/>
<path d="M14.5101 6.75049L14.9158 7.93987L13.8535 7.20479H15.1666L14.1043 7.93987L14.5101 6.75049Z" fill="white"/>
<path d="M14.5101 8.72314L14.9158 9.91252L13.8535 9.17745H15.1666L14.1043 9.91252L14.5101 8.72314Z" fill="white"/>
<path d="M11.7142 0.833496L12.1199 2.02287L11.0576 1.2878H12.3707L11.3084 2.02287L11.7142 0.833496Z" fill="white"/>
<path d="M11.7142 2.80566L12.1199 3.99504L11.0576 3.25997H12.3707L11.3084 3.99504L11.7142 2.80566Z" fill="white"/>
<path d="M10.4027 1.81982L10.8084 3.0092L9.74609 2.27413H11.0592L9.99688 3.0092L10.4027 1.81982Z" fill="white"/>
<path d="M10.4027 3.8252L10.8084 5.01457L9.74609 4.2795H11.0592L9.99688 5.01457L10.4027 3.8252Z" fill="white"/>
<path d="M10.4027 5.83008L10.8084 7.01946L9.74609 6.28438H11.0592L9.99688 7.01946L10.4027 5.83008Z" fill="white"/>
<path d="M10.4027 7.83545L10.8084 9.02483L9.74609 8.28975H11.0592L9.99688 9.02483L10.4027 7.83545Z" fill="white"/>
<path d="M11.7142 4.77832L12.1199 5.9677L11.0576 5.23262H12.3707L11.3084 5.9677L11.7142 4.77832Z" fill="white"/>
<path d="M11.7142 6.75049L12.1199 7.93987L11.0576 7.20479H12.3707L11.3084 7.93987L11.7142 6.75049Z" fill="white"/>
<path d="M11.7142 8.72314L12.1199 9.91252L11.0576 9.17745H12.3707L11.3084 9.91252L11.7142 8.72314Z" fill="white"/>
<path d="M8.91828 0.833496L9.32405 2.02287L8.26172 1.2878H9.57483L8.5125 2.02287L8.91828 0.833496Z" fill="white"/>
<path d="M8.91828 2.80566L9.32405 3.99504L8.26172 3.25997H9.57483L8.5125 3.99504L8.91828 2.80566Z" fill="white"/>
<path d="M7.60675 1.81982L8.01253 3.0092L6.9502 2.27413H8.26331L7.20098 3.0092L7.60675 1.81982Z" fill="white"/>
<path d="M7.60675 3.8252L8.01253 5.01457L6.9502 4.2795H8.26331L7.20098 5.01457L7.60675 3.8252Z" fill="white"/>
<path d="M7.60675 5.83008L8.01253 7.01946L6.9502 6.28438H8.26331L7.20098 7.01946L7.60675 5.83008Z" fill="white"/>
<path d="M7.60675 7.83545L8.01253 9.02483L6.9502 8.28975H8.26331L7.20098 9.02483L7.60675 7.83545Z" fill="white"/>
<path d="M8.91828 4.77832L9.32405 5.9677L8.26172 5.23262H9.57483L8.5125 5.9677L8.91828 4.77832Z" fill="white"/>
<path d="M8.91828 6.75049L9.32405 7.93987L8.26172 7.20479H9.57483L8.5125 7.93987L8.91828 6.75049Z" fill="white"/>
<path d="M8.91828 8.72314L9.32405 9.91252L8.26172 9.17745H9.57483L8.5125 9.91252L8.91828 8.72314Z" fill="white"/>
<path d="M6.12238 0.833496L6.52815 2.02287L5.46582 1.2878H6.77894L5.7166 2.02287L6.12238 0.833496Z" fill="white"/>
<path d="M6.12238 2.80566L6.52815 3.99504L5.46582 3.25997H6.77894L5.7166 3.99504L6.12238 2.80566Z" fill="white"/>
<path d="M4.81085 1.81982L5.21663 3.0092L4.1543 2.27413H5.46741L4.40508 3.0092L4.81085 1.81982Z" fill="white"/>
<path d="M4.81085 3.8252L5.21663 5.01457L4.1543 4.2795H5.46741L4.40508 5.01457L4.81085 3.8252Z" fill="white"/>
<path d="M4.81085 5.83008L5.21663 7.01946L4.1543 6.28438H5.46741L4.40508 7.01946L4.81085 5.83008Z" fill="white"/>
<path d="M4.81085 7.83545L5.21663 9.02483L4.1543 8.28975H5.46741L4.40508 9.02483L4.81085 7.83545Z" fill="white"/>
<path d="M6.12238 4.77832L6.52815 5.9677L5.46582 5.23262H6.77894L5.7166 5.9677L6.12238 4.77832Z" fill="white"/>
<path d="M6.12238 6.75049L6.52815 7.93987L5.46582 7.20479H6.77894L5.7166 7.93987L6.12238 6.75049Z" fill="white"/>
<path d="M6.12238 8.72314L6.52815 9.91252L5.46582 9.17745H6.77894L5.7166 9.91252L6.12238 8.72314Z" fill="white"/>
<path d="M3.32648 0.833496L3.73225 2.02287L2.66992 1.2878H3.98304L2.9207 2.02287L3.32648 0.833496Z" fill="white"/>
<path d="M3.32648 2.80566L3.73225 3.99504L2.66992 3.25997H3.98304L2.9207 3.99504L3.32648 2.80566Z" fill="white"/>
<path d="M2.01496 1.81982L2.42073 3.0092L1.3584 2.27413H2.67151L1.60918 3.0092L2.01496 1.81982Z" fill="white"/>
<path d="M2.01496 3.8252L2.42073 5.01457L1.3584 4.2795H2.67151L1.60918 5.01457L2.01496 3.8252Z" fill="white"/>
<path d="M2.01496 5.83008L2.42073 7.01946L1.3584 6.28438H2.67151L1.60918 7.01946L2.01496 5.83008Z" fill="white"/>
<path d="M2.01496 7.83545L2.42073 9.02483L1.3584 8.28975H2.67151L1.60918 9.02483L2.01496 7.83545Z" fill="white"/>
<path d="M3.32648 4.77832L3.73225 5.9677L2.66992 5.23262H3.98304L2.9207 5.9677L3.32648 4.77832Z" fill="white"/>
<path d="M3.32648 6.75049L3.73225 7.93987L2.66992 7.20479H3.98304L2.9207 7.93987L3.32648 6.75049Z" fill="white"/>
<path d="M3.32648 8.72314L3.73225 9.91252L2.66992 9.17745H3.98304L2.9207 9.91252L3.32648 8.72314Z" fill="white"/>
</g>
</svg>
