<svg width="50" height="50" viewBox="0 0 50 50" fill="none" xmlns="http://www.w3.org/2000/svg">
<circle cx="25" cy="25" r="25" fill="#32B76C"/>
<path d="M34.431 15.5556C31.9223 13.0556 28.5773 11.6667 25.0465 11.6667C17.7062 11.6667 11.7597 17.5926 11.7597 24.9074C11.7597 27.2222 12.4101 29.5371 13.5251 31.4815L11.6667 38.3334L18.7283 36.4815C20.6795 37.5 22.8166 38.0556 25.0465 38.0556C32.3868 38.0556 38.3334 32.1297 38.3334 24.8148C38.2405 21.3889 36.9397 18.0556 34.431 15.5556ZM31.4577 29.6296C31.1789 30.3704 29.8781 31.1111 29.2277 31.2037C28.6702 31.2963 27.9269 31.2963 27.1836 31.1111C26.719 30.9259 26.0686 30.7408 25.3253 30.3704C21.9803 28.9815 19.8433 25.6482 19.6575 25.3704C19.4716 25.1852 18.2637 23.6111 18.2637 21.9445C18.2637 20.2778 19.1 19.5371 19.3787 19.1667C19.6575 18.7963 20.0291 18.7963 20.3079 18.7963C20.4937 18.7963 20.7724 18.7963 20.9583 18.7963C21.1441 18.7963 21.4228 18.7037 21.7016 19.3519C21.9803 20 22.6307 21.6667 22.7237 21.7593C22.8166 21.9445 22.8166 22.1297 22.7237 22.3148C22.6307 22.5 22.5378 22.6852 22.352 22.8704C22.1662 23.0556 21.9803 23.3334 21.8874 23.4259C21.7016 23.6111 21.5158 23.7963 21.7016 24.0741C21.8874 24.4445 22.5378 25.463 23.5599 26.3889C24.8607 27.5 25.8828 27.8704 26.2544 28.0556C26.6261 28.2408 26.8119 28.1482 26.9978 27.963C27.1836 27.7778 27.834 27.0371 28.0198 26.6667C28.2057 26.2963 28.4844 26.3889 28.7631 26.4815C29.0419 26.5741 30.7144 27.4074 30.9931 27.5926C31.3648 27.7778 31.5506 27.8704 31.6435 27.963C31.7364 28.2408 31.7364 28.8889 31.4577 29.6296Z" fill="white"/>
</svg>
