<svg width="30" height="30" viewBox="0 0 30 30" fill="none" xmlns="http://www.w3.org/2000/svg">
<path d="M15 26.25C14.1938 25.535 13.2825 24.7912 12.3188 24H12.3063C8.91253 21.225 5.06628 18.085 3.36753 14.3225C2.80943 13.1247 2.51366 11.8214 2.50001 10.5C2.49629 8.68686 3.22349 6.94873 4.51729 5.67846C5.81108 4.40819 7.56226 3.71299 9.37503 3.75C10.8508 3.75233 12.2948 4.17885 13.535 4.97875C14.08 5.33246 14.5731 5.76032 15 6.25C15.4294 5.76224 15.9226 5.33464 16.4663 4.97875C17.7059 4.17869 19.1496 3.75215 20.625 3.75C22.4378 3.71299 24.189 4.40819 25.4828 5.67846C26.7766 6.94873 27.5038 8.68686 27.5 10.5C27.4873 11.8235 27.1915 13.129 26.6325 14.3288C24.9338 18.0913 21.0888 21.23 17.695 24L17.6825 24.01C16.7175 24.7962 15.8075 25.54 15.0013 26.26L15 26.25ZM9.37503 6.25C8.21067 6.23543 7.08762 6.68106 6.25003 7.49C5.44301 8.28271 4.99197 9.36881 4.99992 10.5C5.01419 11.4631 5.23231 12.4123 5.64003 13.285C6.44192 14.9084 7.52391 16.3776 8.83628 17.625C10.075 18.875 11.5 20.085 12.7325 21.1025C13.0738 21.3837 13.4213 21.6675 13.7688 21.9512L13.9875 22.13C14.3213 22.4025 14.6663 22.685 15 22.9625L15.0163 22.9475L15.0238 22.9412H15.0313L15.0425 22.9325H15.0488H15.055L15.0775 22.9138L15.1288 22.8725L15.1375 22.865L15.1513 22.855H15.1588L15.17 22.845L16 22.1637L16.2175 21.985C16.5688 21.6988 16.9163 21.415 17.2575 21.1338C18.49 20.1163 19.9163 18.9075 21.155 17.6513C22.4676 16.4045 23.5496 14.9356 24.3513 13.3125C24.7664 12.4323 24.9876 11.4731 25.0001 10.5C25.0052 9.3723 24.5544 8.29037 23.75 7.5C22.914 6.6874 21.7908 6.2381 20.625 6.25C19.2024 6.23791 17.8424 6.83421 16.8875 7.88875L15 10.0638L13.1125 7.88875C12.1576 6.83421 10.7976 6.23791 9.37503 6.25Z" fill="#DDBB64"/>
</svg>
