<svg width="30" height="30" viewBox="0 0 30 30" fill="none" xmlns="http://www.w3.org/2000/svg">
<path d="M16.875 11.5625H2.5C1.9875 11.5625 1.5625 11.1375 1.5625 10.625C1.5625 10.1125 1.9875 9.6875 2.5 9.6875H16.875C17.3875 9.6875 17.8125 10.1125 17.8125 10.625C17.8125 11.1375 17.3875 11.5625 16.875 11.5625Z" fill="#42403D"/>
<path d="M10 21.5625H7.5C6.9875 21.5625 6.5625 21.1375 6.5625 20.625C6.5625 20.1125 6.9875 19.6875 7.5 19.6875H10C10.5125 19.6875 10.9375 20.1125 10.9375 20.625C10.9375 21.1375 10.5125 21.5625 10 21.5625Z" fill="#42403D"/>
<path d="M18.125 21.5625H13.125C12.6125 21.5625 12.1875 21.1375 12.1875 20.625C12.1875 20.1125 12.6125 19.6875 13.125 19.6875H18.125C18.6375 19.6875 19.0625 20.1125 19.0625 20.625C19.0625 21.1375 18.6375 21.5625 18.125 21.5625Z" fill="#42403D"/>
<path d="M21.95 26.5625H8.05C3.075 26.5625 1.5625 25.0625 1.5625 20.1375V9.8625C1.5625 4.9375 3.075 3.4375 8.05 3.4375H16.875C17.3875 3.4375 17.8125 3.8625 17.8125 4.375C17.8125 4.8875 17.3875 5.3125 16.875 5.3125H8.05C4.125 5.3125 3.4375 5.9875 3.4375 9.8625V20.125C3.4375 24 4.125 24.675 8.05 24.675H21.9375C25.8625 24.675 26.55 24 26.55 20.125V15.025C26.55 14.5125 26.975 14.0875 27.4875 14.0875C28 14.0875 28.425 14.5125 28.425 15.025V20.125C28.4375 25.0625 26.925 26.5625 21.95 26.5625Z" fill="#42403D"/>
<path d="M27.5 8.75H20.625C20.1125 8.75 19.6875 8.325 19.6875 7.8125C19.6875 7.3 20.1125 6.875 20.625 6.875H27.5C28.0125 6.875 28.4375 7.3 28.4375 7.8125C28.4375 8.325 28.0125 8.75 27.5 8.75Z" fill="#42403D"/>
<path d="M24.0625 12.1875C23.55 12.1875 23.125 11.7625 23.125 11.25V4.375C23.125 3.8625 23.55 3.4375 24.0625 3.4375C24.575 3.4375 25 3.8625 25 4.375V11.25C25 11.7625 24.575 12.1875 24.0625 12.1875Z" fill="#42403D"/>
</svg>
