<svg width="20" height="20" viewBox="0 0 20 20" fill="none" xmlns="http://www.w3.org/2000/svg">
<path d="M9.99984 18.3334C5.39746 18.3334 1.6665 14.6024 1.6665 10C1.6665 5.39765 5.39746 1.66669 9.99984 1.66669C14.6022 1.66669 18.3332 5.39765 18.3332 10C18.3281 14.6003 14.6001 18.3283 9.99984 18.3334ZM3.33317 10.1434C3.3726 13.8111 6.36743 16.758 10.0353 16.7384C13.7031 16.7185 16.6661 13.7396 16.6661 10.0717C16.6661 6.40377 13.7031 3.42483 10.0353 3.40502C6.36743 3.3854 3.3726 6.33232 3.33317 10V10.1434ZM10.8332 14.1667H9.1665V10.8334H5.83317V9.16669H9.1665V5.83335H10.8332V9.16669H14.1665V10.8334H10.8332V14.1667Z" fill="#DDBB64"/>
</svg>
