<svg width="19" height="24" viewBox="0 0 19 24" fill="none" xmlns="http://www.w3.org/2000/svg">
<path d="M11.0222 14.5879H0V12H11.0222C12.1983 12 13.1506 11.8022 13.8792 11.4066C14.6078 11.011 15.1386 10.4615 15.4717 9.75824C15.8151 9.05495 15.9869 8.25275 15.9869 7.35165C15.9869 6.52747 15.8151 5.75275 15.4717 5.02747C15.1386 4.3022 14.6078 3.71978 13.8792 3.28022C13.1506 2.82967 12.1983 2.6044 11.0222 2.6044H5.6516V24H2.63846V0H11.0222C12.7395 0 14.1915 0.313187 15.378 0.93956C16.5645 1.56593 17.4648 2.43407 18.0789 3.54396C18.693 4.64286 19 5.9011 19 7.31868C19 8.85714 18.693 10.1703 18.0789 11.2582C17.4648 12.3462 16.5645 13.1758 15.378 13.7473C14.1915 14.3077 12.7395 14.5879 11.0222 14.5879Z" fill="#DDBB64"/>
<rect y="16.967" width="14.6546" height="2.81319" fill="#DDBB64"/>
</svg>
