<svg width="9" height="12" viewBox="0 0 9 12" fill="none" xmlns="http://www.w3.org/2000/svg">
<path d="M5.22104 7.18613H0V6H5.22104C5.77814 6 6.22925 5.90934 6.57436 5.72802C6.91947 5.5467 7.17091 5.29487 7.32868 4.97253C7.49137 4.65018 7.57272 4.28251 7.57272 3.86951C7.57272 3.49176 7.49137 3.13668 7.32868 2.80426C7.17091 2.47184 6.91947 2.2049 6.57436 2.00343C6.22925 1.79693 5.77814 1.69368 5.22104 1.69368H2.67708V11.5H1.2498V0.5H5.22104C6.03451 0.5 6.72227 0.643544 7.28431 0.930632C7.84634 1.21772 8.2728 1.61561 8.56368 2.12431C8.85456 2.62798 9 3.20467 9 3.8544C9 4.55952 8.85456 5.1614 8.56368 5.66003C8.2728 6.15865 7.84634 6.53892 7.28431 6.80082C6.72227 7.05769 6.03451 7.18613 5.22104 7.18613Z" fill="#DDBB64"/>
<rect y="8.27655" width="6.94166" height="1.28938" fill="#DDBB64"/>
</svg>
