<svg width="10" height="13" viewBox="0 0 10 13" fill="none" xmlns="http://www.w3.org/2000/svg">
<path d="M5.80115 7.90179H0V6.5H5.80115C6.42016 6.5 6.92139 6.39286 7.30485 6.17857C7.6883 5.96429 7.96768 5.66667 8.14297 5.28571C8.32375 4.90476 8.41413 4.47024 8.41413 3.98214C8.41413 3.53571 8.32375 3.11607 8.14297 2.72321C7.96768 2.33036 7.6883 2.01488 7.30485 1.77679C6.92139 1.53274 6.42016 1.41071 5.80115 1.41071H2.97453V13H1.38866V0H5.80115C6.70501 0 7.46919 0.169643 8.09367 0.508929C8.71816 0.848214 9.192 1.31845 9.5152 1.91964C9.8384 2.51488 10 3.19643 10 3.96429C10 4.79762 9.8384 5.50893 9.5152 6.09821C9.192 6.6875 8.71816 7.1369 8.09367 7.44643C7.46919 7.75 6.70501 7.90179 5.80115 7.90179Z" fill="#42403D"/>
<rect y="9.19043" width="7.71295" height="1.52381" fill="#42403D"/>
</svg>
