<svg width="10" height="10" viewBox="0 0 10 10" fill="none" xmlns="http://www.w3.org/2000/svg">
<path d="M7.48828 0.571213C8.53831 1.81616 9.15991 3.34539 9.15991 5.00052C9.15991 6.65566 8.53831 8.18484 7.48828 9.42979C7.34968 9.58811 7.39167 9.81479 7.58067 9.92993C7.76968 10.0487 8.03004 10.0127 8.16865 9.85078C9.31947 8.4871 9.99993 6.81038 9.99993 5.00052C9.99993 3.18707 9.31947 1.51035 8.16865 0.14666C8.03004 -0.0116577 7.76968 -0.0476724 7.58067 0.0674676C7.39167 0.182607 7.34968 0.409298 7.48828 0.571213Z" fill="#F6F6F6"/>
<path d="M6.21995 5.0005C6.21995 3.82392 5.78311 2.73728 5.03969 1.85215C4.90529 1.69023 4.94728 1.46714 5.13629 1.352C5.32529 1.23326 5.58576 1.27283 5.72016 1.43115C6.56438 2.43503 7.05996 3.6692 7.05996 5.0005C7.05996 6.32821 6.56438 7.56238 5.72016 8.56625C5.58576 8.72817 5.32529 8.76414 5.13629 8.649C4.94728 8.53386 4.90529 8.30717 5.03969 8.14526C5.78311 7.26012 6.21995 6.17349 6.21995 5.0005Z" fill="#F6F6F6"/>
<path d="M2.59515 3.14028C3.02776 3.66561 3.27982 4.30609 3.27982 5.00053C3.27982 5.69137 3.02776 6.33184 2.59515 6.85717C2.46075 7.02268 2.50695 7.24573 2.70016 7.36087C2.88916 7.47241 3.14962 7.43643 3.28403 7.27092C3.80904 6.63045 4.11984 5.84608 4.11984 5.00053C4.11984 4.15497 3.80904 3.37055 3.28403 2.72649C3.14962 2.56457 2.88916 2.525 2.70016 2.64014C2.50695 2.75168 2.46075 2.97836 2.59515 3.14028Z" fill="#F6F6F6"/>
<path d="M0.0835606 4.17297C0.297765 4.41764 0.419589 4.7163 0.419589 5.03653C0.419589 5.35676 0.297765 5.65541 0.0835606 5.90009C-0.0550425 6.062 -0.0172621 6.28509 0.167542 6.40383C0.356546 6.52257 0.617014 6.49016 0.755617 6.33184C1.07062 5.96484 1.25961 5.51868 1.25961 5.03653C1.25961 4.55438 1.07062 4.10822 0.755617 3.74121C0.617014 3.5829 0.356546 3.55049 0.167542 3.66922C-0.0172621 3.78796 -0.0550425 4.01106 0.0835606 4.17297Z" fill="#F6F6F6"/>
</svg>
