<svg width="9" height="11" viewBox="0 0 9 11" fill="none" xmlns="http://www.w3.org/2000/svg">
<path d="M5.22104 6.68613H0V5.5H5.22104C5.77814 5.5 6.22925 5.40934 6.57436 5.22802C6.91947 5.0467 7.17091 4.79487 7.32868 4.47253C7.49137 4.15018 7.57272 3.78251 7.57272 3.36951C7.57272 2.99176 7.49137 2.63668 7.32868 2.30426C7.17091 1.97184 6.91947 1.7049 6.57436 1.50343C6.22925 1.29693 5.77814 1.19368 5.22104 1.19368H2.67708V11H1.2498V0H5.22104C6.03451 0 6.72227 0.143544 7.28431 0.430632C7.84634 0.71772 8.2728 1.11561 8.56368 1.62431C8.85456 2.12798 9 2.70467 9 3.3544C9 4.05952 8.85456 4.6614 8.56368 5.16003C8.2728 5.65865 7.84634 6.03892 7.28431 6.30082C6.72227 6.55769 6.03451 6.68613 5.22104 6.68613Z" fill="#CDD0D9"/>
<rect y="7.77655" width="6.94166" height="1.28938" fill="#CDD0D9"/>
</svg>
