<svg width="50" height="35" viewBox="0 0 50 35" fill="none" xmlns="http://www.w3.org/2000/svg">
<rect x="0.810146" y="0.810146" width="48.3797" height="33.3797" rx="5.67102" fill="#006FCF" stroke="#F3F3F3" stroke-width="1.62029"/>
<path fill-rule="evenodd" clip-rule="evenodd" d="M10.2269 25.282V18.0768H18.2645L19.1269 19.1438L20.0177 18.0768H49.1924V24.7851C49.1924 24.7851 48.4294 25.2748 47.547 25.282H31.3924L30.4201 24.1462V25.282H27.2341V23.3431C27.2341 23.3431 26.7989 23.6138 25.858 23.6138H24.7735V25.282H19.9496L19.0884 24.1921L18.2141 25.282H10.2269ZM0.862061 12.6463L2.67047 8.6355H5.79792L6.82422 10.8822V8.6355H10.7119L11.3229 10.2593L11.9152 8.6355H29.367V9.45185C29.367 9.45185 30.2844 8.6355 31.7921 8.6355L37.4546 8.65432L38.4632 10.8716V8.6355H41.7166L42.6121 9.90914V8.6355H45.8954V15.8407H42.6121L41.7539 14.5629V15.8407H36.9739L36.4932 14.7049H35.2082L34.7353 15.8407H31.4937C30.1963 15.8407 29.367 15.041 29.367 15.041V15.8407H24.4794L23.5093 14.7049V15.8407H5.33461L4.85424 14.7049H3.57331L3.09633 15.8407H0.862061V12.6463ZM0.871382 14.9188L3.31053 9.52375H5.15971L7.59653 14.9188H5.97354L5.52582 13.8385H2.90945L2.45939 14.9188H0.871382ZM5.01048 12.6671L4.21297 10.7793L3.41314 12.6671H5.01048ZM7.76445 14.9179V9.52282L10.0211 9.53079L11.3336 13.0092L12.6148 9.52282H14.8534V14.9179H13.4356V10.9426L11.9327 14.9179H10.6893L9.18223 10.9426V14.9179H7.76445ZM15.8234 14.9179V9.52282H20.4499V10.7296H17.2561V11.6524H20.3752V12.7882H17.2561V13.7466H20.4499V14.9179H15.8234ZM21.2707 14.9188V9.52375H24.4257C25.4711 9.52375 26.4078 10.1387 26.4078 11.274C26.4078 12.2446 25.6181 12.8697 24.8524 12.9311L26.7179 14.9188H24.9854L23.2854 13.0021H22.6885V14.9188H21.2707ZM24.3091 10.7305H22.6884V11.8663H24.3301C24.6142 11.8663 24.9807 11.6568 24.9807 11.2984C24.9807 11.0198 24.6979 10.7305 24.3091 10.7305ZM28.4342 14.9179H26.9866V9.52282H28.4342V14.9179ZM31.8667 14.9179H31.5543C30.0424 14.9179 29.1244 13.7847 29.1244 12.2425C29.1244 10.6622 30.0321 9.52282 31.9414 9.52282H33.5084V10.8006H31.8841C31.109 10.8006 30.5609 11.376 30.5609 12.2558C30.5609 13.3006 31.1876 13.7395 32.0906 13.7395H32.4637L31.8667 14.9179ZM32.5127 14.9188L34.9518 9.52375H36.801L39.2378 14.9188H37.6148L37.1671 13.8385H34.5507L34.1007 14.9188H32.5127ZM36.6518 12.6671L35.8543 10.7793L35.0544 12.6671H36.6518ZM39.4034 14.9179V9.52282H41.2059L43.5075 12.9125V9.52282H44.9253V14.9179H43.181L40.8212 11.4395V14.9179H39.4034ZM11.197 24.3592V18.9642H15.8234V20.1709H12.6297V21.0938H15.7488V22.2296H12.6297V23.1879H15.8234V24.3592H11.197ZM33.8665 24.3592V18.9642H38.493V20.1709H35.2993V21.0938H38.4035V22.2296H35.2993V23.1879H38.493V24.3592H33.8665ZM16.003 24.3592L18.2555 21.6949L15.9493 18.9642H17.7355L19.109 20.6523L20.4872 18.9642H22.2034L19.9275 21.6617L22.1843 24.3592H20.3983L19.0647 22.6976L17.7635 24.3592H16.003ZM22.3527 24.3601V18.965H25.4844C26.7694 18.965 27.5201 19.7529 27.5201 20.7796C27.5201 22.0191 26.5629 22.6564 25.3002 22.6564H23.8077V24.3601H22.3527ZM25.3794 20.1851H23.8077V21.4274H25.3747C25.7888 21.4274 26.079 21.1663 26.079 20.8063C26.079 20.423 25.7874 20.1851 25.3794 20.1851ZM28.1358 24.3592V18.9642H31.2908C32.3362 18.9642 33.2729 19.5791 33.2729 20.7144C33.2729 21.685 32.4831 22.3101 31.7175 22.3715L33.583 24.3592H31.8504L30.1505 22.4425H29.5535V24.3592H28.1358ZM31.1742 20.171H29.5535V21.3068H31.1952C31.4793 21.3068 31.8458 21.0973 31.8458 20.7389C31.8458 20.4603 31.563 20.171 31.1742 20.171ZM39.1497 24.3592V23.1879H41.9871C42.407 23.1879 42.5888 22.9721 42.5888 22.7354C42.5888 22.5086 42.4075 22.2793 41.9871 22.2793H40.7049C39.5904 22.2793 38.9697 21.6333 38.9697 20.6634C38.9697 19.7984 39.5381 18.9642 41.1943 18.9642H43.9552L43.3583 20.178H40.9704C40.514 20.178 40.3735 20.4059 40.3735 20.6235C40.3735 20.8471 40.5471 21.0938 40.8958 21.0938H42.239C43.4814 21.0938 44.0205 21.7642 44.0205 22.6422C44.0205 23.5861 43.4198 24.3592 42.1713 24.3592H39.1497ZM44.1455 24.3592V23.1879H46.9829C47.4028 23.1879 47.5846 22.9721 47.5846 22.7354C47.5846 22.5086 47.4034 22.2793 46.9829 22.2793H45.7007C44.5862 22.2793 43.9655 21.6333 43.9655 20.6634C43.9655 19.7984 44.5339 18.9642 46.1901 18.9642H48.9511L48.3541 20.178H45.9662C45.5098 20.178 45.3693 20.4059 45.3693 20.6235C45.3693 20.8471 45.5429 21.0938 45.8916 21.0938H47.2348C48.4772 21.0938 49.0163 21.7642 49.0163 22.6422C49.0163 23.5861 48.4156 24.3592 47.1672 24.3592H44.1455Z" fill="white"/>
</svg>
