<svg width="50" height="35" viewBox="0 0 50 35" fill="none" xmlns="http://www.w3.org/2000/svg">
<rect x="0.5" y="0.5" width="49" height="34" rx="3.5" stroke="#F3F3F3"/>
<path d="M29.5777 25.3544H20.6543V9.19818H29.5777V25.3544Z" fill="#6C6BBD"/>
<path d="M21.226 17.275C21.226 13.9977 22.7492 11.0783 25.1211 9.19691C23.3866 7.82116 21.1975 7.00003 18.8184 7.00003C13.1862 7.00003 8.62061 11.6002 8.62061 17.275C8.62061 22.9498 13.1862 27.55 18.8184 27.55C21.1975 27.55 23.3866 26.7289 25.1211 25.3532C22.7492 23.4718 21.226 20.5524 21.226 17.275" fill="#EB001B"/>
<path d="M41.6127 17.275C41.6127 22.9498 37.0471 27.55 31.4149 27.55C29.0358 27.55 26.8468 26.7289 25.1116 25.3532C27.4842 23.4718 29.0073 20.5524 29.0073 17.275C29.0073 13.9977 27.4842 11.0783 25.1116 9.19691C26.8468 7.82116 29.0358 7.00003 31.4149 7.00003C37.0471 7.00003 41.6127 11.6002 41.6127 17.275" fill="#0099DF"/>
</svg>
