<svg width="50" height="35" viewBox="0 0 50 35" fill="none" xmlns="http://www.w3.org/2000/svg">
<rect x="1.72966" y="1.72966" width="46.5407" height="31.5407" rx="2.27034" fill="#F6F6F6" stroke="#F6F6F6" stroke-width="3.45932"/>
<path d="M12.045 18.7776C12.107 18.5297 12.2864 18.4664 12.2864 18.2811C12.7086 16.726 13.1294 15.2343 13.6099 13.8043C13.9096 12.7473 14.6331 12.25 15.5964 12.25C16.6188 12.25 17.461 12.25 18.4842 12.25C18.9057 12.25 18.9655 12.4986 18.9655 12.8716C18.9655 16.228 18.9655 19.647 18.9655 23.0034C18.9655 23.4389 18.9057 23.5015 18.4842 23.5015C17.7009 23.5015 16.7989 23.5015 16.0156 23.5015C15.5957 23.5015 15.5351 23.2528 15.5351 23.0034C15.5351 21.3874 15.5351 19.647 15.5351 18.0309C15.5351 17.7205 15.5351 17.4094 15.5351 17.1607C15.4753 17.1607 15.4753 17.1607 15.2945 17.1607C15.2339 17.4094 15.0523 17.5962 14.9933 17.7831C14.3917 19.6478 13.9096 21.4491 13.4298 23.3146C13.37 23.3772 13.1302 23.5632 12.8282 23.5632C12.3462 23.5632 11.8051 23.5632 11.2633 23.5632C10.8417 23.5632 10.7827 23.5015 10.6616 23.0652C10.1803 21.2005 9.57872 19.3984 8.97711 17.5337C8.97711 17.2851 8.91732 17.0982 8.91732 16.9121H8.85678C8.85678 17.16 8.79624 17.3468 8.79624 17.5337C8.79624 19.2741 8.79624 21.1387 8.79624 22.8799C8.79624 23.5015 8.55711 23.625 8.07506 23.625C7.29258 23.625 6.51161 23.625 5.66859 23.625C5.24708 23.625 5.1873 23.5632 5.1873 23.127C5.1873 19.7721 5.1873 16.2898 5.1873 12.8716C5.12752 12.3743 5.24708 12.3125 5.54827 12.3125C6.63118 12.3125 7.65355 12.3125 8.73646 12.3125C9.57873 12.3125 10.2401 12.8098 10.4225 13.7418C10.903 15.2968 11.2633 16.7878 11.7453 18.3413C11.8058 18.5899 11.9852 18.7768 11.9852 18.9629C11.9254 18.7776 12.045 18.7776 12.045 18.7776Z" fill="#40A548"/>
<path d="M24.5359 19.0998C24.599 18.8493 24.7841 18.6596 24.8464 18.4714C25.5886 16.9009 26.2693 15.3919 27.01 13.6957C27.4433 12.8159 28.1241 12.3132 29.0514 12.3132C29.8559 12.3132 30.5989 12.3132 31.4018 12.3132C31.8359 12.3132 31.8966 12.3757 31.8966 12.8152C31.8966 16.2084 31.8966 19.7282 31.8966 23.1847C31.8966 23.4977 31.8359 23.625 31.4632 23.625C30.6596 23.625 29.7322 23.625 28.9277 23.625C28.4936 23.625 28.3092 23.5626 28.4322 23.1223C28.4322 21.2371 28.4322 19.4769 28.4322 17.6549C28.4322 17.4036 28.4322 17.2154 28.1855 16.9009C28.1233 17.1522 27.9381 17.2147 27.8759 17.4028C27.1345 18.9749 26.4537 20.6079 25.7115 22.1785C25.2774 23.248 24.5982 23.6242 23.4856 23.6242C22.6812 23.6242 21.9405 23.6242 21.1353 23.6242C20.8257 23.6242 20.6405 23.5618 20.7012 23.1839C20.7012 19.665 20.7012 16.2709 20.7012 12.6895C20.7012 12.3757 20.7634 12.25 21.1353 12.25C22.0004 12.25 22.9908 12.25 23.856 12.25C24.2893 12.25 24.2893 12.5006 24.2893 12.7519C24.2893 14.5114 24.2893 16.2709 24.2893 18.1561C24.2893 18.4074 24.2893 18.6588 24.2893 18.9101C24.2893 18.9749 24.4146 19.0998 24.5359 19.0998Z" fill="#40A548"/>
<path d="M32.7585 12.25C33.0134 12.25 33.2072 12.25 33.2707 12.25C35.8274 12.25 38.3197 12.25 40.8764 12.25C43.3052 12.25 45.16 14.3498 44.7773 16.3917C44.7773 16.4496 44.7773 16.4496 44.713 16.625C44.393 16.625 44.0738 16.625 43.8182 16.625C41.9007 16.625 40.111 16.625 38.257 16.625C35.956 16.625 33.7177 15.1077 32.9507 13.0659C32.8221 12.7746 32.7585 12.5413 32.7585 12.25Z" fill="#1291D0"/>
<path d="M44.8275 17.6841C44.511 19.032 43.0475 20.011 41.5863 20.1335C40.3155 20.1335 39.1717 20.1335 37.8992 20.1335C37.4556 20.1335 37.2653 20.1951 37.2653 20.6234C37.2653 21.4198 37.2653 22.2155 37.2653 23.1351C37.2653 23.4409 37.2014 23.625 36.8201 23.625C35.9297 23.625 34.9138 23.625 34.0873 23.625C33.77 23.625 33.6429 23.5634 33.6429 23.196C33.6429 21.4806 33.6429 19.7668 33.6429 17.929C33.579 17.6841 33.6429 17.5 33.9594 17.5C37.3908 17.5 40.9501 17.5 44.4454 17.5C44.6373 17.5608 44.7004 17.6841 44.8275 17.6841Z" fill="#40A548"/>
</svg>
