<svg width="50" height="35" viewBox="0 0 50 35" fill="none" xmlns="http://www.w3.org/2000/svg">
<rect x="1.72966" y="1.72966" width="46.5407" height="31.5407" rx="2.27034" fill="#F6F6F6" stroke="#F3F3F3" stroke-width="3.45932"/>
<path d="M22.1997 24.0041H18.8708L20.953 11.7535H24.2816L22.1997 24.0041Z" fill="#15195A"/>
<path d="M34.2672 12.053C33.6106 11.8051 32.5692 11.5314 31.2815 11.5314C27.9941 11.5314 25.6792 13.1995 25.665 15.5844C25.6377 17.3439 27.3224 18.3212 28.5824 18.9079C29.8703 19.5074 30.3081 19.8987 30.3081 20.4331C30.295 21.2538 29.2674 21.6321 28.309 21.6321C26.98 21.6321 26.2679 21.437 25.1857 20.9804L24.7473 20.7847L24.2815 23.5347C25.0622 23.8732 26.5007 24.1735 27.9941 24.1867C31.487 24.1867 33.7609 22.5444 33.7879 20.003C33.8012 18.6084 32.9116 17.5398 30.9937 16.6666C29.8294 16.1061 29.1163 15.7281 29.1163 15.1546C29.13 14.6332 29.7194 14.0992 31.0337 14.0992C32.1159 14.073 32.911 14.3206 33.5134 14.5683L33.8145 14.6984L34.2672 12.053V12.053V12.053Z" fill="#15195A"/>
<path fill-rule="evenodd" clip-rule="evenodd" d="M40.2257 11.7535H42.8006L45.4862 24.0039H42.404C42.404 24.0039 42.1023 22.5964 42.0068 22.1663H37.7328C37.6092 22.4919 37.0341 24.0039 37.0341 24.0039H33.5413L38.4859 12.7699C38.8285 11.9749 39.4317 11.7535 40.2257 11.7535ZM40.0206 16.2365C40.0206 16.2365 38.9657 18.9604 38.6916 19.6642H41.4585C41.3216 19.0517 40.6912 16.1193 40.6912 16.1193L40.4586 15.0637C40.3606 15.3355 40.2189 15.7092 40.1234 15.9612C40.0586 16.1321 40.015 16.2471 40.0206 16.2365Z" fill="#15195A"/>
<path fill-rule="evenodd" clip-rule="evenodd" d="M12.8304 20.1072L16.0905 11.7535H19.6105L14.3781 23.9911H10.8579L7.89086 13.3464C6.86716 12.7769 5.69884 12.3189 4.39258 12.001L4.44737 11.7535H9.80319C10.5291 11.7793 11.1182 12.0008 11.3099 12.7833L12.4739 18.4121C12.474 18.4124 12.4741 18.4127 12.4742 18.413L12.8304 20.1072Z" fill="#15195A"/>
</svg>
